<svg  width="890" height="510" viewBox="0 0 890 510" fill="none" xmlns="http://www.w3.org/2000/svg">
<path d="M444.538 460.603C690.049 460.603 889.076 455.036 889.076 448.169C889.076 441.301 690.049 435.734 444.538 435.734C199.026 435.734 0 441.301 0 448.169C0 455.036 199.026 460.603 444.538 460.603Z" fill="#E6E6E6"/>
<path class='cat bounce-4' d="M681.445 313.052C680.884 313.06 680.323 313.067 679.754 313.067C679.185 313.067 678.623 313.06 678.062 313.052C648.304 312.375 626.736 293.783 632.226 274.275L645.613 226.686L648.997 214.645L708.973 215.668L712.617 227.448L726.966 273.814C733.04 293.429 711.472 312.375 681.445 313.052Z" fill="#153C3B"/>
<path class='cat bounce-4' opacity="0.2" d="M712.617 227.448C702.391 233.293 690.79 236.304 679.012 236.171C667.234 236.037 655.704 232.763 645.613 226.686L648.997 214.645L708.973 215.668L712.617 227.448Z" fill="black"/>
<path class='cat bounce-4' d="M710.086 275.854C712.677 266.198 721.192 252.269 745.073 235.474C786.72 206.18 761.876 184.215 760.799 183.295C758.541 181.364 758.874 179.197 761.575 178.456C763.143 178.142 764.761 178.168 766.319 178.53C767.877 178.893 769.34 179.585 770.609 180.559C771.957 181.674 803.068 208.242 756.072 241.293C713.777 271.042 722.769 290.462 722.873 290.648C724.006 292.725 722.189 294.387 718.81 294.365C715.431 294.342 711.77 292.642 710.633 290.567C710.394 290.128 707.673 284.843 710.086 275.854Z" fill="#153C3B"/>
<path class='cat bounce-4' d="M652.072 319.988C651.163 319.988 650.264 319.809 649.424 319.461C648.584 319.113 647.821 318.603 647.179 317.961C646.536 317.318 646.026 316.555 645.679 315.716C645.331 314.876 645.152 313.976 645.152 313.067V283.079C645.152 281.244 645.881 279.484 647.179 278.186C648.477 276.888 650.237 276.159 652.072 276.159C653.908 276.159 655.668 276.888 656.966 278.186C658.263 279.484 658.992 281.244 658.992 283.079V313.067C658.993 313.976 658.814 314.876 658.466 315.716C658.118 316.555 657.608 317.318 656.966 317.961C656.323 318.603 655.56 319.113 654.721 319.461C653.881 319.809 652.981 319.988 652.072 319.988V319.988Z" fill="#153C3B"/>
<path class='cat bounce-4' d="M658.14 248.795C657.76 249.62 657.221 250.363 656.554 250.98C655.887 251.598 655.105 252.078 654.253 252.393C653.401 252.708 652.495 252.852 651.586 252.817C650.678 252.782 649.786 252.569 648.96 252.189L621.717 239.655C620.052 238.886 618.76 237.488 618.125 235.768C617.489 234.047 617.563 232.145 618.33 230.479C619.096 228.812 620.493 227.519 622.213 226.882C623.933 226.244 625.835 226.316 627.502 227.081L654.745 239.615C655.571 239.995 656.314 240.534 656.931 241.201C657.549 241.868 658.029 242.65 658.344 243.502C658.659 244.354 658.803 245.26 658.768 246.169C658.733 247.077 658.52 247.969 658.14 248.795V248.795Z" fill="#153C3B"/>
<path class='cat bounce-4' d="M701.367 248.795C701.747 249.62 702.286 250.363 702.953 250.98C703.62 251.598 704.401 252.078 705.254 252.393C706.106 252.708 707.012 252.852 707.92 252.817C708.829 252.782 709.721 252.569 710.547 252.189L737.789 239.655C739.457 238.888 740.751 237.49 741.388 235.768C742.024 234.047 741.951 232.143 741.184 230.476C740.417 228.808 739.019 227.514 737.297 226.877C735.576 226.241 733.672 226.314 732.005 227.081L704.761 239.615C703.936 239.995 703.193 240.534 702.576 241.201C701.958 241.868 701.478 242.65 701.163 243.502C700.848 244.354 700.704 245.261 700.739 246.169C700.774 247.077 700.987 247.969 701.367 248.795V248.795Z" fill="#153C3B"/>
<path class='cat bounce-4' d="M707.435 319.988C708.344 319.988 709.243 319.809 710.083 319.461C710.923 319.113 711.686 318.603 712.328 317.961C712.971 317.318 713.481 316.555 713.828 315.716C714.176 314.876 714.355 313.976 714.355 313.067V283.079C714.355 281.244 713.626 279.484 712.328 278.186C711.03 276.888 709.27 276.159 707.435 276.159C705.599 276.159 703.839 276.888 702.541 278.186C701.244 279.484 700.514 281.244 700.514 283.079V313.067C700.514 313.976 700.693 314.876 701.041 315.716C701.389 316.555 701.899 317.318 702.541 317.961C703.184 318.603 703.947 319.113 704.786 319.461C705.626 319.809 706.526 319.988 707.435 319.988V319.988Z" fill="#153C3B"/>
<path class='cat bounce-4' d="M736.356 125.845C736.954 125.092 737.385 124.22 737.622 123.288C737.859 122.356 737.895 121.384 737.729 120.437L733.963 98.2797L730.196 76.1227C729.993 74.9263 729.478 73.8046 728.704 72.8702C727.93 71.9359 726.923 71.2218 725.785 70.7997C724.648 70.3777 723.419 70.2626 722.223 70.4659C721.026 70.6693 719.904 71.184 718.97 71.9583L701.665 86.2985L691.239 94.938C684.286 93.7016 677.179 93.5945 670.192 94.6207L660.149 86.2985L642.844 71.9583C641.909 71.184 640.787 70.6693 639.591 70.4659C638.395 70.2626 637.166 70.3777 636.028 70.7998C634.891 71.2218 633.884 71.9359 633.11 72.8703C632.335 73.8046 631.821 74.9263 631.617 76.1227L627.851 98.2797L624.085 120.437C623.884 121.601 623.987 122.798 624.386 123.91C617.931 133.805 614.246 145.249 613.713 157.052C613.18 168.854 615.819 180.583 621.356 191.02C626.893 201.456 635.125 210.218 645.196 216.395C655.267 222.572 666.809 225.937 678.621 226.141C690.434 226.346 702.085 223.381 712.363 217.556C722.642 211.731 731.171 203.258 737.065 193.019C742.959 182.78 746.002 171.149 745.877 159.335C745.752 147.522 742.465 135.957 736.356 125.845V125.845Z" fill="#153C3B"/>
<path class='cat bounce-4' d="M641.109 81.0381C640.699 81.0387 640.292 81.1125 639.908 81.2562C639.342 81.462 638.842 81.8146 638.458 82.2777C638.074 82.7409 637.82 83.2979 637.723 83.8915L633.156 110.761C633.055 111.353 633.112 111.962 633.321 112.525C633.53 113.088 633.884 113.587 634.346 113.97C634.809 114.353 635.364 114.608 635.957 114.709C636.549 114.809 637.157 114.752 637.721 114.543L663.274 105.064C663.837 104.855 664.335 104.502 664.719 104.039C665.102 103.576 665.357 103.021 665.457 102.429C665.558 101.837 665.501 101.229 665.292 100.665C665.083 100.102 664.73 99.6038 664.267 99.2205L664.267 99.2197L643.281 81.8299C642.672 81.3198 641.904 81.0396 641.109 81.0381V81.0381Z" fill="#E6E6E6"/>
<path class='cat bounce-4' d="M720.704 81.0381C719.91 81.0396 719.141 81.3198 718.532 81.8299L697.547 99.2205C697.084 99.6038 696.731 100.102 696.522 100.665C696.313 101.229 696.256 101.837 696.357 102.429C696.457 103.021 696.712 103.576 697.095 104.039C697.479 104.502 697.977 104.855 698.54 105.064L724.093 114.543C724.657 114.752 725.265 114.809 725.857 114.709C726.449 114.608 727.005 114.353 727.467 113.97C727.93 113.587 728.284 113.088 728.493 112.525C728.702 111.962 728.759 111.353 728.658 110.761L724.091 83.8915C723.993 83.2979 723.74 82.7409 723.356 82.2777C722.972 81.8146 722.472 81.462 721.906 81.2562C721.522 81.1125 721.115 81.0387 720.704 81.0381Z" fill="#E6E6E6"/>
<path class='cat bounce-4' d="M679.753 178.505C684.849 178.505 688.981 174.374 688.981 169.278C688.981 164.182 684.849 160.051 679.753 160.051C674.657 160.051 670.526 164.182 670.526 169.278C670.526 174.374 674.657 178.505 679.753 178.505Z" fill="#E6E6E6"/>
<path class='cat bounce-4' d="M679.753 166.971C683.151 166.971 685.905 165.939 685.905 164.665C685.905 163.391 683.151 162.358 679.753 162.358C676.356 162.358 673.602 163.391 673.602 164.665C673.602 165.939 676.356 166.971 679.753 166.971Z" fill="#3F3D56"/>
<path class='cat bounce-4' d="M675.14 174.661H683.598V185.041C683.598 185.597 683.489 186.146 683.276 186.66C683.064 187.173 682.752 187.639 682.359 188.032C681.967 188.424 681.5 188.736 680.987 188.948C680.474 189.161 679.924 189.27 679.369 189.27V189.27C678.247 189.27 677.172 188.825 676.379 188.032C675.585 187.238 675.14 186.163 675.14 185.041V174.661H675.14Z" fill="#FF6584"/>
<path class='cat bounce-4' d="M680.267 70C679.823 70.9198 679.393 71.8495 678.988 72.7982C674.216 83.9274 672.606 96.1572 674.337 108.142C675.202 106.886 676.112 105.577 677.038 104.254C675.056 92.7519 676.17 80.9294 680.267 70V70Z" fill="#3F3D56"/>
<path class='cat bounce-4' d="M687.187 78.4585C686.744 79.3783 686.313 80.308 685.908 81.2567C681.136 92.3859 679.527 104.616 681.257 116.601C682.123 115.345 683.033 114.036 683.958 112.713C681.976 101.21 683.091 89.3879 687.187 78.4585V78.4585Z" fill="#3F3D56"/>
<path class='cat bounce-4' d="M708.523 244.509L707.548 232.111L706.573 219.713C706.521 219.044 706.293 218.4 705.912 217.846C705.532 217.293 705.013 216.849 704.407 216.56C703.801 216.271 703.129 216.147 702.46 216.199C701.79 216.252 701.147 216.48 700.593 216.86L690.344 223.903L682.859 229.047C682.381 228.487 681.786 228.037 681.118 227.729C680.449 227.42 679.721 227.261 678.984 227.261C678.248 227.261 677.52 227.42 676.851 227.729C676.182 228.037 675.588 228.487 675.11 229.047L667.625 223.903L657.376 216.86C656.822 216.48 656.179 216.252 655.509 216.199C654.84 216.147 654.168 216.271 653.562 216.56C652.956 216.849 652.437 217.293 652.057 217.846C651.676 218.4 651.448 219.044 651.396 219.713L650.421 232.111L649.446 244.509C649.393 245.179 649.518 245.85 649.807 246.456C650.096 247.062 650.54 247.581 651.093 247.962C651.646 248.342 652.29 248.57 652.96 248.622C653.629 248.675 654.3 248.551 654.906 248.261L666.131 242.907L675.354 238.507C675.828 238.988 676.393 239.37 677.017 239.63C677.64 239.891 678.309 240.025 678.984 240.025C679.66 240.025 680.329 239.891 680.952 239.63C681.575 239.37 682.141 238.988 682.615 238.507L691.838 242.907L703.062 248.261C703.668 248.551 704.34 248.675 705.009 248.622C705.679 248.57 706.322 248.342 706.876 247.962C707.429 247.581 707.873 247.062 708.162 246.456C708.451 245.85 708.576 245.179 708.523 244.509V244.509Z" fill="#4E9D97"/>
<path class='cat bounce-4' d="M667.451 161.589C668.725 161.589 669.758 160.556 669.758 159.282C669.758 158.008 668.725 156.976 667.451 156.976C666.177 156.976 665.144 158.008 665.144 159.282C665.144 160.556 666.177 161.589 667.451 161.589Z" fill="#E6E6E6"/>
<path class='cat bounce-4' d="M692.056 161.589C693.33 161.589 694.363 160.556 694.363 159.282C694.363 158.008 693.33 156.976 692.056 156.976C690.782 156.976 689.75 158.008 689.75 159.282C689.75 160.556 690.782 161.589 692.056 161.589Z" fill="#E6E6E6"/>
<path class='cat bounce-3' d="M233.425 293.052C233.987 293.059 234.548 293.067 235.117 293.067C235.686 293.067 236.247 293.059 236.809 293.052C266.566 292.375 288.134 273.782 282.644 254.275L269.257 206.686L265.874 194.645L205.898 195.667L202.253 207.447L187.905 253.813C181.83 273.429 203.399 292.375 233.425 293.052Z" fill="#4E9D97"/>
<path class='cat bounce-3' opacity="0.2" d="M202.253 207.447C212.479 213.293 224.08 216.304 235.859 216.17C247.637 216.036 259.166 212.762 269.257 206.686L265.874 194.645L205.898 195.667L202.253 207.447Z" fill="black"/>
<path class='cat bounce-3' d="M197.5 250.213C191.026 242.595 177.37 233.649 148.599 228.688C98.422 220.032 111.478 189.548 112.058 188.256C113.273 185.545 112.044 183.728 109.286 184.214C107.734 184.602 106.283 185.317 105.03 186.312C103.777 187.306 102.751 188.557 102.021 189.981C101.279 191.566 84.5288 228.891 141.148 238.653C192.105 247.444 192.287 268.844 192.273 269.056C192.138 271.419 194.491 272.143 197.536 270.677C200.58 269.211 203.161 266.108 203.301 263.746C203.329 263.247 203.527 257.305 197.5 250.213Z" fill="#4E9D97"/>
<path class='cat bounce-3' d="M262.798 299.987C263.707 299.987 264.607 299.808 265.447 299.461C266.286 299.113 267.049 298.603 267.692 297.961C268.334 297.318 268.844 296.555 269.192 295.715C269.54 294.876 269.719 293.976 269.719 293.067V263.079C269.716 261.245 268.986 259.487 267.689 258.191C266.391 256.895 264.632 256.167 262.798 256.167C260.964 256.167 259.205 256.895 257.908 258.191C256.61 259.487 255.88 261.245 255.878 263.079V293.067C255.878 293.976 256.057 294.876 256.405 295.715C256.752 296.555 257.262 297.318 257.905 297.961C258.547 298.603 259.31 299.113 260.15 299.461C260.99 299.808 261.889 299.987 262.798 299.987V299.987Z" fill="#4E9D97"/>
<path class='cat bounce-3' d="M256.731 228.794C257.11 229.62 257.649 230.363 258.316 230.98C258.983 231.598 259.765 232.078 260.617 232.393C261.47 232.708 262.376 232.852 263.284 232.817C264.192 232.782 265.084 232.569 265.91 232.189L293.153 219.655C293.979 219.275 294.723 218.737 295.342 218.07C295.96 217.403 296.441 216.621 296.757 215.768C297.072 214.915 297.217 214.009 297.182 213.1C297.148 212.191 296.934 211.298 296.554 210.472C296.174 209.646 295.635 208.903 294.967 208.285C294.3 207.668 293.517 207.188 292.664 206.873C291.811 206.558 290.904 206.414 289.995 206.45C289.086 206.485 288.194 206.7 287.368 207.081L260.125 219.615C259.299 219.995 258.557 220.534 257.939 221.201C257.322 221.867 256.842 222.649 256.527 223.502C256.211 224.354 256.067 225.26 256.102 226.168C256.137 227.076 256.351 227.969 256.731 228.794V228.794Z" fill="#4E9D97"/>
<path class='cat bounce-3' d="M213.503 228.794C213.123 229.62 212.585 230.363 211.918 230.98C211.251 231.598 210.469 232.078 209.617 232.393C208.764 232.708 207.858 232.852 206.95 232.817C206.042 232.782 205.15 232.569 204.324 232.189L177.081 219.655C176.254 219.275 175.511 218.737 174.892 218.07C174.274 217.403 173.793 216.621 173.477 215.768C173.161 214.915 173.017 214.009 173.052 213.1C173.086 212.191 173.3 211.298 173.68 210.472C174.06 209.646 174.599 208.903 175.267 208.285C175.934 207.668 176.717 207.188 177.57 206.873C178.423 206.558 179.33 206.414 180.239 206.45C181.147 206.485 182.04 206.7 182.866 207.081L210.109 219.615C210.935 219.995 211.677 220.534 212.295 221.201C212.912 221.867 213.392 222.649 213.707 223.502C214.023 224.354 214.167 225.26 214.132 226.168C214.097 227.076 213.883 227.969 213.503 228.794Z" fill="#4E9D97"/>
<path class='cat bounce-3' d="M207.436 299.987C206.527 299.987 205.627 299.808 204.787 299.461C203.948 299.113 203.185 298.603 202.542 297.961C201.9 297.318 201.39 296.555 201.042 295.715C200.694 294.876 200.515 293.976 200.515 293.067V263.079C200.518 261.245 201.248 259.487 202.545 258.191C203.843 256.895 205.602 256.167 207.436 256.167C209.27 256.167 211.029 256.895 212.326 258.191C213.624 259.487 214.354 261.245 214.356 263.079V293.067C214.356 293.976 214.177 294.876 213.829 295.715C213.482 296.555 212.972 297.318 212.329 297.961C211.687 298.603 210.924 299.113 210.084 299.461C209.244 299.808 208.344 299.987 207.436 299.987V299.987Z" fill="#4E9D97"/>
<path class='cat bounce-3' d="M290.484 103.91C290.883 102.798 290.987 101.601 290.786 100.437L287.019 78.2797L283.253 56.1227C283.05 54.9264 282.535 53.8047 281.761 52.8703C280.986 51.9359 279.98 51.2218 278.842 50.7998C277.704 50.3777 276.475 50.2626 275.279 50.466C274.083 50.6693 272.961 51.184 272.027 51.9583L254.721 66.2986L244.679 74.6207C237.691 73.5945 230.584 73.7017 223.631 74.9381L213.206 66.2985L195.9 51.9583C194.966 51.184 193.844 50.6693 192.648 50.4659C191.451 50.2626 190.223 50.3777 189.085 50.7997C187.947 51.2218 186.941 51.9359 186.166 52.8703C185.392 53.8046 184.877 54.9263 184.674 56.1227L180.908 78.2797L177.141 100.437C176.975 101.384 177.011 102.356 177.248 103.288C177.485 104.22 177.917 105.092 178.515 105.845C172.398 115.96 169.104 127.529 168.975 139.348C168.846 151.168 171.887 162.806 177.781 173.051C183.676 183.297 192.209 191.776 202.491 197.605C212.774 203.434 224.432 206.401 236.25 206.197C248.069 205.993 259.616 202.625 269.692 196.444C279.767 190.263 288.002 181.494 293.539 171.051C299.076 160.608 301.713 148.872 301.176 137.064C300.639 125.256 296.947 113.808 290.484 103.91H290.484Z" fill="#4E9D97"/>
<path class='cat bounce-3' d="M271.589 61.8299L250.604 79.2197L250.603 79.2205C250.141 79.6038 249.787 80.1021 249.578 80.6653C249.369 81.2285 249.312 81.8368 249.413 82.429C249.514 83.0212 249.769 83.5765 250.152 84.039C250.535 84.5016 251.033 84.855 251.597 85.064L277.15 94.5434C277.713 94.7524 278.322 94.8094 278.914 94.7087C279.506 94.6081 280.062 94.3533 280.524 93.97C280.987 93.5866 281.34 93.0883 281.549 92.525C281.758 91.9617 281.815 91.3534 281.715 90.7611L277.147 63.8915C277.05 63.2979 276.796 62.7409 276.412 62.2777C276.028 61.8146 275.528 61.462 274.963 61.2562C274.578 61.1125 274.171 61.0387 273.761 61.0381C272.967 61.0396 272.198 61.3198 271.589 61.8299V61.8299Z" fill="#E6E6E6"/>
<path class='cat bounce-3' d="M192.964 61.2562C192.399 61.462 191.899 61.8146 191.515 62.2777C191.131 62.7409 190.877 63.2979 190.78 63.8915L186.212 90.7611C186.112 91.3534 186.169 91.9617 186.378 92.525C186.587 93.0883 186.94 93.5866 187.403 93.97C187.866 94.3533 188.421 94.6081 189.013 94.7087C189.606 94.8094 190.214 94.7524 190.777 94.5434L216.33 85.064C216.894 84.855 217.392 84.5015 217.775 84.039C218.158 83.5765 218.413 83.0212 218.514 82.429C218.615 81.8368 218.558 81.2285 218.349 80.6653C218.14 80.1021 217.786 79.6038 217.324 79.2205L196.338 61.8299C195.729 61.3198 194.96 61.0396 194.166 61.0381C193.756 61.0387 193.349 61.1125 192.964 61.2562Z" fill="#E6E6E6"/>
<path class='cat bounce-3' d="M235.117 158.505C240.213 158.505 244.344 154.374 244.344 149.278C244.344 144.182 240.213 140.051 235.117 140.051C230.021 140.051 225.89 144.182 225.89 149.278C225.89 154.374 230.021 158.505 235.117 158.505Z" fill="#E6E6E6"/>
<path class='cat bounce-3' d="M235.117 146.971C238.514 146.971 241.268 145.939 241.268 144.665C241.268 143.391 238.514 142.358 235.117 142.358C231.72 142.358 228.966 143.391 228.966 144.665C228.966 145.939 231.72 146.971 235.117 146.971Z" fill="#3F3D56"/>
<path class='cat bounce-3' d="M235.501 169.27C234.946 169.27 234.396 169.161 233.883 168.948C233.37 168.736 232.904 168.424 232.511 168.031C232.118 167.639 231.807 167.172 231.594 166.659C231.382 166.146 231.272 165.596 231.272 165.041V154.66H239.73V165.041C239.73 165.596 239.621 166.146 239.409 166.659C239.196 167.172 238.885 167.639 238.492 168.031C238.099 168.424 237.633 168.736 237.12 168.948C236.607 169.161 236.057 169.27 235.501 169.27V169.27Z" fill="#FF6584"/>
<path class='cat bounce-3' d="M234.604 50C235.047 50.9198 235.478 51.8495 235.883 52.7982C240.655 63.9273 242.264 76.1572 240.533 88.142C239.668 86.8859 238.758 85.5773 237.832 84.2543C239.814 72.7519 238.7 60.9294 234.604 50V50Z" fill="#3F3D56"/>
<path class='cat bounce-3' d="M227.683 58.458C228.127 59.3778 228.558 60.3075 228.963 61.2562C233.735 72.3853 235.344 84.6153 233.613 96.6001C232.748 95.344 231.838 94.0353 230.912 92.7123C232.894 81.21 231.78 69.3874 227.683 58.458V58.458Z" fill="#3F3D56"/>
<path class='cat bounce-3' d="M206.347 89.9471L207.322 77.549L208.297 65.151C208.35 64.4815 208.578 63.8378 208.958 63.2843C209.338 62.7309 209.858 62.2874 210.464 61.9982C211.07 61.7091 211.741 61.5846 212.411 61.6373C213.08 61.6899 213.724 61.9178 214.277 62.2981L224.527 69.3415L232.011 74.4847C232.49 73.9246 233.084 73.4749 233.753 73.1665C234.422 72.8582 235.149 72.6985 235.886 72.6985C236.623 72.6985 237.35 72.8582 238.019 73.1665C238.688 73.4749 239.282 73.9246 239.761 74.4847L247.245 69.3415L257.495 62.2981C258.048 61.9178 258.692 61.6899 259.361 61.6373C260.031 61.5846 260.702 61.7091 261.308 61.9982C261.914 62.2874 262.434 62.7309 262.814 63.2843C263.194 63.8378 263.422 64.4815 263.475 65.151L264.45 77.549L265.425 89.9471C265.477 90.6165 265.353 91.288 265.064 91.894C264.774 92.5001 264.331 93.0193 263.778 93.3996C263.224 93.7799 262.58 94.0078 261.911 94.0605C261.242 94.1131 260.57 93.9886 259.964 93.6995L248.739 88.3447L239.517 83.945C239.042 84.4258 238.477 84.8076 237.854 85.0682C237.23 85.3288 236.562 85.4629 235.886 85.4629C235.21 85.4629 234.542 85.3288 233.918 85.0682C233.295 84.8076 232.73 84.4258 232.255 83.945L223.033 88.3447L211.808 93.6995C211.202 93.9887 210.531 94.1132 209.861 94.0605C209.192 94.0079 208.548 93.78 207.995 93.3997C207.441 93.0194 206.998 92.5001 206.708 91.894C206.419 91.288 206.295 90.6165 206.347 89.9471V89.9471Z" fill="#153C3B"/>
<path class='cat bounce-3' d="M245.113 139.282C245.113 140.556 246.146 139.282 247.42 139.282C248.694 139.282 249.727 140.556 249.727 139.282C249.725 138.671 249.482 138.085 249.049 137.654C248.617 137.222 248.031 136.98 247.42 136.98C246.809 136.98 246.223 137.222 245.79 137.654C245.358 138.085 245.114 138.671 245.113 139.282V139.282Z" fill="#153C3B"/>
<path class='cat bounce-3' d="M225.121 139.282C225.121 140.556 224.088 139.282 222.814 139.282C221.54 139.282 220.507 140.556 220.507 139.282C220.509 138.671 220.752 138.085 221.185 137.654C221.617 137.222 222.203 136.98 222.814 136.98C223.425 136.98 224.011 137.222 224.444 137.654C224.876 138.085 225.12 138.671 225.121 139.282V139.282Z" fill="#153C3B"/>
<path d="M481.05 313.451V298.788H407.736V299.705V313.451V431.67V446.333H422.399H481.05V431.67H422.399V313.451H481.05Z" fill="#153C3B"/>
<path d="M516.791 298.788V446.333H590.105V298.788H516.791ZM575.442 431.67H531.453V313.451H575.442V431.67Z" fill="#4E9D97"/>
<path d="M313.344 431.67V299.705H298.681V431.67V446.333H313.344H371.995V431.67H313.344Z" fill="#4E9D97"/>
<path d="M265.69 313.451V298.788H192.376V299.705V313.451V364.771V379.434V431.67V446.333H207.039H265.69V431.67H207.039V379.434H265.69V364.771H207.039V313.451H265.69Z" fill="#153C3B"/>
<path d="M839.372 313.451V298.788H766.058V299.705V313.451V364.771V379.434V431.67V446.333H780.721H839.372V431.67H780.721V379.434H839.372V364.771H780.721V313.451H839.372Z" fill="#4E9D97"/>
<path d="M142.889 299.705V420.89L104.228 382.23L104.14 382.319L104.058 382.237L64.5351 421.76V299.247H49.8721V445.875H64.5351V442.496L104.147 402.884L142.889 441.627V446.333H157.552V299.705H142.889Z" fill="#153C3B"/>
<path d="M717.488 299.705V303.083L677.876 342.695L639.133 303.953V299.247H624.47V445.875H639.133V324.689L677.794 363.35L677.883 363.261L677.964 363.342L717.488 323.819V446.333H732.15V299.705H717.488Z" fill="#153C3B"/>
<path d="M335.076 209.379C340.046 209.379 344.076 205.35 344.076 200.379C344.076 195.409 340.046 191.379 335.076 191.379C330.105 191.379 326.076 195.409 326.076 200.379C326.076 205.35 330.105 209.379 335.076 209.379Z" fill="#E1AEAB"/>
<path d="M113.076 309.379C118.046 309.379 122.076 305.35 122.076 300.379C122.076 295.409 118.046 291.379 113.076 291.379C108.105 291.379 104.076 295.409 104.076 300.379C104.076 305.35 108.105 309.379 113.076 309.379Z" fill="#E1AEAB"/>
<path d="M291.076 509.379C296.046 509.379 300.076 505.35 300.076 500.379C300.076 495.409 296.046 491.379 291.076 491.379C286.105 491.379 282.076 495.409 282.076 500.379C282.076 505.35 286.105 509.379 291.076 509.379Z" fill="#E1AEAB"/>
<path d="M517.076 236.379C522.046 236.379 526.076 232.35 526.076 227.379C526.076 222.409 522.046 218.379 517.076 218.379C512.105 218.379 508.076 222.409 508.076 227.379C508.076 232.35 512.105 236.379 517.076 236.379Z" fill="#E1AEAB"/>
<path d="M782.076 501.379C787.046 501.379 791.076 497.35 791.076 492.379C791.076 487.409 787.046 483.379 782.076 483.379C777.105 483.379 773.076 487.409 773.076 492.379C773.076 497.35 777.105 501.379 782.076 501.379Z" fill="#E1AEAB"/>
<path d="M791.076 265.379C796.046 265.379 800.076 261.35 800.076 256.379C800.076 251.409 796.046 247.379 791.076 247.379C786.105 247.379 782.076 251.409 782.076 256.379C782.076 261.35 786.105 265.379 791.076 265.379Z" fill="#E1AEAB"/>
<path d="M677.076 427.379C682.046 427.379 686.076 423.35 686.076 418.379C686.076 413.409 682.046 409.379 677.076 409.379C672.105 409.379 668.076 413.409 668.076 418.379C668.076 423.35 672.105 427.379 677.076 427.379Z" fill="#E1AEAB"/>

</svg>
